<mxfile host="Electron" modified="2024-04-01T23:14:12.114Z" agent="Mozilla/5.0 (Windows NT 10.0; Win64; x64) AppleWebKit/537.36 (KHTML, like Gecko) draw.io/23.1.5 Chrome/120.0.6099.109 Electron/28.1.0 Safari/537.36" etag="FYwB5RilecAOh_a1a4NJ" version="23.1.5" type="device">
  <diagram name="Page-1" id="gGP_JQKHkJ75ZC6qpG5g">
    <mxGraphModel dx="1674" dy="844" grid="1" gridSize="10" guides="1" tooltips="1" connect="1" arrows="1" fold="1" page="1" pageScale="1" pageWidth="1169" pageHeight="827" math="0" shadow="0">
      <root>
        <mxCell id="0" />
        <mxCell id="1" parent="0" />
        <mxCell id="iuwSZ66twtj5qp6_oxFh-1" value="" style="ellipse;html=1;shape=startState;fillColor=#000000;strokeColor=#ff0000;" vertex="1" parent="1">
          <mxGeometry x="255" y="10" width="30" height="30" as="geometry" />
        </mxCell>
        <mxCell id="iuwSZ66twtj5qp6_oxFh-18" value="login&lt;br&gt;(imput login/password)" style="text;html=1;align=center;verticalAlign=middle;resizable=0;points=[];autosize=1;strokeColor=none;fillColor=none;" vertex="1" parent="1">
          <mxGeometry x="270" y="185" width="140" height="40" as="geometry" />
        </mxCell>
        <mxCell id="iuwSZ66twtj5qp6_oxFh-4" value="Hold for&lt;br&gt;authorisation" style="rounded=1;whiteSpace=wrap;html=1;" vertex="1" parent="1">
          <mxGeometry x="210" y="110" width="120" height="60" as="geometry" />
        </mxCell>
        <mxCell id="iuwSZ66twtj5qp6_oxFh-14" value="" style="endArrow=open;endFill=1;endSize=12;html=1;rounded=0;exitX=0.5;exitY=1;exitDx=0;exitDy=0;entryX=0.5;entryY=0;entryDx=0;entryDy=0;" edge="1" parent="1" source="iuwSZ66twtj5qp6_oxFh-1" target="iuwSZ66twtj5qp6_oxFh-4">
          <mxGeometry width="160" relative="1" as="geometry">
            <mxPoint x="315" y="120" as="sourcePoint" />
            <mxPoint x="475" y="120" as="targetPoint" />
          </mxGeometry>
        </mxCell>
        <mxCell id="iuwSZ66twtj5qp6_oxFh-17" value="" style="endArrow=open;endFill=1;endSize=12;html=1;rounded=0;exitX=0.5;exitY=1;exitDx=0;exitDy=0;entryX=0.5;entryY=0;entryDx=0;entryDy=0;" edge="1" parent="1" source="iuwSZ66twtj5qp6_oxFh-4" target="iuwSZ66twtj5qp6_oxFh-20">
          <mxGeometry width="160" relative="1" as="geometry">
            <mxPoint x="269.58000000000004" y="190" as="sourcePoint" />
            <mxPoint x="270" y="250" as="targetPoint" />
          </mxGeometry>
        </mxCell>
        <mxCell id="iuwSZ66twtj5qp6_oxFh-20" value="Login data check" style="rounded=1;whiteSpace=wrap;html=1;" vertex="1" parent="1">
          <mxGeometry x="210" y="260" width="120" height="60" as="geometry" />
        </mxCell>
        <mxCell id="iuwSZ66twtj5qp6_oxFh-21" value="" style="endArrow=open;endFill=1;endSize=12;html=1;rounded=0;exitX=0;exitY=0.5;exitDx=0;exitDy=0;edgeStyle=orthogonalEdgeStyle;entryX=0;entryY=0.5;entryDx=0;entryDy=0;" edge="1" parent="1" source="iuwSZ66twtj5qp6_oxFh-20" target="iuwSZ66twtj5qp6_oxFh-4">
          <mxGeometry width="160" relative="1" as="geometry">
            <mxPoint x="180" y="280" as="sourcePoint" />
            <mxPoint x="130" y="130" as="targetPoint" />
            <Array as="points">
              <mxPoint x="160" y="290" />
              <mxPoint x="160" y="140" />
            </Array>
          </mxGeometry>
        </mxCell>
        <mxCell id="iuwSZ66twtj5qp6_oxFh-23" value="[login data&lt;br&gt;is incorrect]" style="text;html=1;align=center;verticalAlign=middle;resizable=0;points=[];autosize=1;strokeColor=none;fillColor=none;" vertex="1" parent="1">
          <mxGeometry x="90" y="205" width="80" height="40" as="geometry" />
        </mxCell>
        <mxCell id="iuwSZ66twtj5qp6_oxFh-24" value="" style="endArrow=open;endFill=1;endSize=12;html=1;rounded=0;exitX=1;exitY=0.5;exitDx=0;exitDy=0;entryX=0;entryY=0;entryDx=0;entryDy=0;" edge="1" parent="1" source="iuwSZ66twtj5qp6_oxFh-4" target="iuwSZ66twtj5qp6_oxFh-25">
          <mxGeometry width="160" relative="1" as="geometry">
            <mxPoint x="440" y="145" as="sourcePoint" />
            <mxPoint x="480" y="180" as="targetPoint" />
          </mxGeometry>
        </mxCell>
        <mxCell id="iuwSZ66twtj5qp6_oxFh-25" value="Display main page" style="rounded=1;whiteSpace=wrap;html=1;" vertex="1" parent="1">
          <mxGeometry x="495" y="260" width="120" height="60" as="geometry" />
        </mxCell>
        <mxCell id="iuwSZ66twtj5qp6_oxFh-28" value="continue without&lt;br&gt;authorisation" style="text;html=1;align=center;verticalAlign=middle;resizable=0;points=[];autosize=1;strokeColor=none;fillColor=none;" vertex="1" parent="1">
          <mxGeometry x="410" y="175" width="110" height="40" as="geometry" />
        </mxCell>
        <mxCell id="iuwSZ66twtj5qp6_oxFh-29" value="Hold for &lt;br&gt;registration" style="rounded=1;whiteSpace=wrap;html=1;" vertex="1" parent="1">
          <mxGeometry x="520" y="125" width="120" height="60" as="geometry" />
        </mxCell>
        <mxCell id="iuwSZ66twtj5qp6_oxFh-30" value="" style="endArrow=open;endFill=1;endSize=12;html=1;rounded=0;exitX=1;exitY=0.25;exitDx=0;exitDy=0;entryX=0;entryY=0;entryDx=0;entryDy=0;" edge="1" target="iuwSZ66twtj5qp6_oxFh-29" parent="1" source="iuwSZ66twtj5qp6_oxFh-4">
          <mxGeometry width="160" relative="1" as="geometry">
            <mxPoint x="340" y="125" as="sourcePoint" />
            <mxPoint x="510" y="40" as="targetPoint" />
          </mxGeometry>
        </mxCell>
        <mxCell id="iuwSZ66twtj5qp6_oxFh-31" value="[no account]&lt;br&gt;create account" style="text;html=1;align=center;verticalAlign=middle;resizable=0;points=[];autosize=1;strokeColor=none;fillColor=none;" vertex="1" parent="1">
          <mxGeometry x="365" y="85" width="100" height="40" as="geometry" />
        </mxCell>
        <mxCell id="iuwSZ66twtj5qp6_oxFh-32" value="" style="endArrow=open;endFill=1;endSize=12;html=1;rounded=0;exitX=0;exitY=0.25;exitDx=0;exitDy=0;entryX=1;entryY=0.5;entryDx=0;entryDy=0;" edge="1" parent="1" source="iuwSZ66twtj5qp6_oxFh-4" target="iuwSZ66twtj5qp6_oxFh-34">
          <mxGeometry width="160" relative="1" as="geometry">
            <mxPoint x="80" y="85" as="sourcePoint" />
            <mxPoint x="120" y="125" as="targetPoint" />
          </mxGeometry>
        </mxCell>
        <mxCell id="iuwSZ66twtj5qp6_oxFh-34" value="" style="ellipse;html=1;shape=endState;fillColor=#000000;strokeColor=#ff0000;" vertex="1" parent="1">
          <mxGeometry x="75" y="110" width="30" height="30" as="geometry" />
        </mxCell>
        <mxCell id="iuwSZ66twtj5qp6_oxFh-35" value="" style="ellipse;html=1;shape=endState;fillColor=#000000;strokeColor=#ff0000;" vertex="1" parent="1">
          <mxGeometry x="565" y="40" width="30" height="30" as="geometry" />
        </mxCell>
        <mxCell id="iuwSZ66twtj5qp6_oxFh-37" value="" style="endArrow=open;endFill=1;endSize=12;html=1;rounded=0;exitX=0.5;exitY=0;exitDx=0;exitDy=0;entryX=0.5;entryY=1;entryDx=0;entryDy=0;" edge="1" parent="1" source="iuwSZ66twtj5qp6_oxFh-29" target="iuwSZ66twtj5qp6_oxFh-35">
          <mxGeometry width="160" relative="1" as="geometry">
            <mxPoint x="710" y="109.17000000000002" as="sourcePoint" />
            <mxPoint x="900" y="109.17000000000002" as="targetPoint" />
          </mxGeometry>
        </mxCell>
        <mxCell id="iuwSZ66twtj5qp6_oxFh-38" value="" style="endArrow=open;endFill=1;endSize=12;html=1;rounded=0;exitX=1;exitY=0.5;exitDx=0;exitDy=0;entryX=0;entryY=0.5;entryDx=0;entryDy=0;" edge="1" parent="1" source="iuwSZ66twtj5qp6_oxFh-29" target="iuwSZ66twtj5qp6_oxFh-40">
          <mxGeometry width="160" relative="1" as="geometry">
            <mxPoint x="720" y="150" as="sourcePoint" />
            <mxPoint x="820" y="155" as="targetPoint" />
          </mxGeometry>
        </mxCell>
        <mxCell id="iuwSZ66twtj5qp6_oxFh-39" value="input registration data&lt;br&gt;(name,login, &lt;br&gt;password, email etc.)" style="text;html=1;align=center;verticalAlign=middle;resizable=0;points=[];autosize=1;strokeColor=none;fillColor=none;" vertex="1" parent="1">
          <mxGeometry x="660" y="95" width="140" height="60" as="geometry" />
        </mxCell>
        <mxCell id="iuwSZ66twtj5qp6_oxFh-40" value="Registration data check" style="rounded=1;whiteSpace=wrap;html=1;" vertex="1" parent="1">
          <mxGeometry x="820" y="125" width="120" height="60" as="geometry" />
        </mxCell>
        <mxCell id="iuwSZ66twtj5qp6_oxFh-41" value="" style="endArrow=open;endFill=1;endSize=12;html=1;rounded=0;exitX=0.5;exitY=0;exitDx=0;exitDy=0;edgeStyle=orthogonalEdgeStyle;entryX=0.75;entryY=0;entryDx=0;entryDy=0;" edge="1" parent="1" source="iuwSZ66twtj5qp6_oxFh-40" target="iuwSZ66twtj5qp6_oxFh-29">
          <mxGeometry width="160" relative="1" as="geometry">
            <mxPoint x="850" y="225" as="sourcePoint" />
            <mxPoint x="620" y="20" as="targetPoint" />
            <Array as="points">
              <mxPoint x="880" y="90" />
              <mxPoint x="610" y="90" />
            </Array>
          </mxGeometry>
        </mxCell>
        <mxCell id="iuwSZ66twtj5qp6_oxFh-42" value="[registration data&lt;br&gt;is incorrect]" style="text;html=1;align=center;verticalAlign=middle;resizable=0;points=[];autosize=1;strokeColor=none;fillColor=none;" vertex="1" parent="1">
          <mxGeometry x="675" y="45" width="110" height="40" as="geometry" />
        </mxCell>
        <mxCell id="iuwSZ66twtj5qp6_oxFh-43" value="" style="endArrow=open;endFill=1;endSize=12;html=1;rounded=0;exitX=1;exitY=0.5;exitDx=0;exitDy=0;entryX=0;entryY=0.5;entryDx=0;entryDy=0;" edge="1" parent="1" source="iuwSZ66twtj5qp6_oxFh-20" target="iuwSZ66twtj5qp6_oxFh-25">
          <mxGeometry width="160" relative="1" as="geometry">
            <mxPoint x="390" y="300" as="sourcePoint" />
            <mxPoint x="390" y="390" as="targetPoint" />
          </mxGeometry>
        </mxCell>
        <mxCell id="iuwSZ66twtj5qp6_oxFh-44" value="[login data is correct]" style="text;html=1;align=center;verticalAlign=middle;resizable=0;points=[];autosize=1;strokeColor=none;fillColor=none;" vertex="1" parent="1">
          <mxGeometry x="335" y="260" width="130" height="30" as="geometry" />
        </mxCell>
        <mxCell id="iuwSZ66twtj5qp6_oxFh-45" value="Create account" style="rounded=1;whiteSpace=wrap;html=1;" vertex="1" parent="1">
          <mxGeometry x="910" y="245" width="120" height="60" as="geometry" />
        </mxCell>
        <mxCell id="iuwSZ66twtj5qp6_oxFh-46" value="" style="endArrow=open;endFill=1;endSize=12;html=1;rounded=0;exitX=0.75;exitY=1;exitDx=0;exitDy=0;entryX=0.5;entryY=0;entryDx=0;entryDy=0;" edge="1" parent="1" source="iuwSZ66twtj5qp6_oxFh-40" target="iuwSZ66twtj5qp6_oxFh-45">
          <mxGeometry width="160" relative="1" as="geometry">
            <mxPoint x="750" y="350" as="sourcePoint" />
            <mxPoint x="930" y="350" as="targetPoint" />
          </mxGeometry>
        </mxCell>
        <mxCell id="iuwSZ66twtj5qp6_oxFh-47" value="[registration data&lt;br&gt;is acceptable]" style="text;html=1;align=center;verticalAlign=middle;resizable=0;points=[];autosize=1;strokeColor=none;fillColor=none;" vertex="1" parent="1">
          <mxGeometry x="940" y="185" width="110" height="40" as="geometry" />
        </mxCell>
        <mxCell id="iuwSZ66twtj5qp6_oxFh-48" value="" style="endArrow=open;endFill=1;endSize=12;html=1;rounded=0;entryX=0.75;entryY=0;entryDx=0;entryDy=0;exitX=0;exitY=0;exitDx=0;exitDy=0;edgeStyle=orthogonalEdgeStyle;" edge="1" parent="1" source="iuwSZ66twtj5qp6_oxFh-52" target="iuwSZ66twtj5qp6_oxFh-25">
          <mxGeometry width="160" relative="1" as="geometry">
            <mxPoint x="830" y="280" as="sourcePoint" />
            <mxPoint x="770" y="380" as="targetPoint" />
            <Array as="points">
              <mxPoint x="870" y="370" />
              <mxPoint x="870" y="220" />
              <mxPoint x="585" y="220" />
            </Array>
          </mxGeometry>
        </mxCell>
        <mxCell id="iuwSZ66twtj5qp6_oxFh-49" value="open main page" style="text;html=1;align=center;verticalAlign=middle;resizable=0;points=[];autosize=1;strokeColor=none;fillColor=none;" vertex="1" parent="1">
          <mxGeometry x="690" y="195" width="110" height="30" as="geometry" />
        </mxCell>
        <mxCell id="iuwSZ66twtj5qp6_oxFh-51" value="" style="endArrow=open;endFill=1;endSize=12;html=1;rounded=0;exitX=0.5;exitY=1;exitDx=0;exitDy=0;entryX=0.5;entryY=0;entryDx=0;entryDy=0;" edge="1" parent="1" source="iuwSZ66twtj5qp6_oxFh-45" target="iuwSZ66twtj5qp6_oxFh-52">
          <mxGeometry width="160" relative="1" as="geometry">
            <mxPoint x="1015" y="354" as="sourcePoint" />
            <mxPoint x="970" y="360" as="targetPoint" />
          </mxGeometry>
        </mxCell>
        <mxCell id="iuwSZ66twtj5qp6_oxFh-52" value="Display account page" style="rounded=1;whiteSpace=wrap;html=1;" vertex="1" parent="1">
          <mxGeometry x="910" y="370" width="120" height="60" as="geometry" />
        </mxCell>
        <mxCell id="iuwSZ66twtj5qp6_oxFh-55" value="open account page" style="text;html=1;align=center;verticalAlign=middle;resizable=0;points=[];autosize=1;strokeColor=none;fillColor=none;" vertex="1" parent="1">
          <mxGeometry x="960" y="320" width="130" height="30" as="geometry" />
        </mxCell>
        <mxCell id="iuwSZ66twtj5qp6_oxFh-56" value="" style="ellipse;html=1;shape=endState;fillColor=#000000;strokeColor=#ff0000;" vertex="1" parent="1">
          <mxGeometry x="1130" y="385" width="30" height="30" as="geometry" />
        </mxCell>
        <mxCell id="iuwSZ66twtj5qp6_oxFh-57" value="" style="endArrow=open;endFill=1;endSize=12;html=1;rounded=0;exitX=1;exitY=0.5;exitDx=0;exitDy=0;entryX=0;entryY=0.5;entryDx=0;entryDy=0;" edge="1" parent="1" target="iuwSZ66twtj5qp6_oxFh-56" source="iuwSZ66twtj5qp6_oxFh-52">
          <mxGeometry width="160" relative="1" as="geometry">
            <mxPoint x="1050" y="430" as="sourcePoint" />
            <mxPoint x="1050" y="390" as="targetPoint" />
          </mxGeometry>
        </mxCell>
        <mxCell id="iuwSZ66twtj5qp6_oxFh-58" value="exit account" style="text;html=1;align=center;verticalAlign=middle;resizable=0;points=[];autosize=1;strokeColor=none;fillColor=none;" vertex="1" parent="1">
          <mxGeometry x="1030" y="370" width="90" height="30" as="geometry" />
        </mxCell>
        <mxCell id="iuwSZ66twtj5qp6_oxFh-61" value="" style="endArrow=open;endFill=1;endSize=12;html=1;rounded=0;exitX=1;exitY=0;exitDx=0;exitDy=0;edgeStyle=orthogonalEdgeStyle;entryX=0;entryY=0.25;entryDx=0;entryDy=0;" edge="1" parent="1" source="iuwSZ66twtj5qp6_oxFh-25" target="iuwSZ66twtj5qp6_oxFh-52">
          <mxGeometry width="160" relative="1" as="geometry">
            <mxPoint x="640" y="270" as="sourcePoint" />
            <mxPoint x="850" y="310" as="targetPoint" />
            <Array as="points">
              <mxPoint x="615" y="250" />
              <mxPoint x="850" y="250" />
              <mxPoint x="850" y="385" />
            </Array>
          </mxGeometry>
        </mxCell>
        <mxCell id="iuwSZ66twtj5qp6_oxFh-63" value="open account page" style="text;html=1;align=center;verticalAlign=middle;resizable=0;points=[];autosize=1;strokeColor=none;fillColor=none;" vertex="1" parent="1">
          <mxGeometry x="665" y="225" width="130" height="30" as="geometry" />
        </mxCell>
        <mxCell id="iuwSZ66twtj5qp6_oxFh-64" value="Hold for &lt;br&gt;chosen criterias" style="rounded=1;whiteSpace=wrap;html=1;" vertex="1" parent="1">
          <mxGeometry x="495" y="390" width="120" height="60" as="geometry" />
        </mxCell>
        <mxCell id="iuwSZ66twtj5qp6_oxFh-65" value="" style="endArrow=open;endFill=1;endSize=12;html=1;rounded=0;exitX=0.5;exitY=1;exitDx=0;exitDy=0;entryX=0.5;entryY=0;entryDx=0;entryDy=0;" edge="1" parent="1" source="iuwSZ66twtj5qp6_oxFh-25" target="iuwSZ66twtj5qp6_oxFh-64">
          <mxGeometry width="160" relative="1" as="geometry">
            <mxPoint x="554.5799999999999" y="340" as="sourcePoint" />
            <mxPoint x="555" y="400" as="targetPoint" />
          </mxGeometry>
        </mxCell>
        <mxCell id="iuwSZ66twtj5qp6_oxFh-66" value="search tours" style="text;html=1;align=center;verticalAlign=middle;resizable=0;points=[];autosize=1;strokeColor=none;fillColor=none;" vertex="1" parent="1">
          <mxGeometry x="550" y="339" width="90" height="30" as="geometry" />
        </mxCell>
        <mxCell id="iuwSZ66twtj5qp6_oxFh-67" value="" style="ellipse;html=1;shape=endState;fillColor=#000000;strokeColor=#ff0000;" vertex="1" parent="1">
          <mxGeometry x="765" y="260" width="30" height="30" as="geometry" />
        </mxCell>
        <mxCell id="iuwSZ66twtj5qp6_oxFh-68" value="" style="endArrow=open;endFill=1;endSize=12;html=1;rounded=0;exitX=1;exitY=0.5;exitDx=0;exitDy=0;entryX=0;entryY=0.5;entryDx=0;entryDy=0;edgeStyle=orthogonalEdgeStyle;" edge="1" parent="1" target="iuwSZ66twtj5qp6_oxFh-67" source="iuwSZ66twtj5qp6_oxFh-25">
          <mxGeometry width="160" relative="1" as="geometry">
            <mxPoint x="630" y="297.5" as="sourcePoint" />
            <mxPoint x="650" y="287.5" as="targetPoint" />
            <Array as="points">
              <mxPoint x="615" y="275" />
            </Array>
          </mxGeometry>
        </mxCell>
        <mxCell id="iuwSZ66twtj5qp6_oxFh-69" value="exit" style="text;html=1;align=center;verticalAlign=middle;resizable=0;points=[];autosize=1;strokeColor=none;fillColor=none;" vertex="1" parent="1">
          <mxGeometry x="690" y="255" width="40" height="30" as="geometry" />
        </mxCell>
        <mxCell id="iuwSZ66twtj5qp6_oxFh-70" value="Processing and&lt;br&gt;applying criterias&amp;nbsp;" style="rounded=1;whiteSpace=wrap;html=1;" vertex="1" parent="1">
          <mxGeometry x="495" y="520" width="120" height="60" as="geometry" />
        </mxCell>
        <mxCell id="iuwSZ66twtj5qp6_oxFh-71" value="" style="endArrow=open;endFill=1;endSize=12;html=1;rounded=0;exitX=0.5;exitY=1;exitDx=0;exitDy=0;entryX=0.5;entryY=0;entryDx=0;entryDy=0;" edge="1" parent="1" source="iuwSZ66twtj5qp6_oxFh-64" target="iuwSZ66twtj5qp6_oxFh-70">
          <mxGeometry width="160" relative="1" as="geometry">
            <mxPoint x="550" y="490" as="sourcePoint" />
            <mxPoint x="550" y="585" as="targetPoint" />
          </mxGeometry>
        </mxCell>
        <mxCell id="iuwSZ66twtj5qp6_oxFh-72" value="choose criterias" style="text;html=1;align=center;verticalAlign=middle;resizable=0;points=[];autosize=1;strokeColor=none;fillColor=none;" vertex="1" parent="1">
          <mxGeometry x="550" y="470" width="110" height="30" as="geometry" />
        </mxCell>
        <mxCell id="iuwSZ66twtj5qp6_oxFh-73" value="Display tours list&lt;br&gt;with applied criterias" style="rounded=1;whiteSpace=wrap;html=1;" vertex="1" parent="1">
          <mxGeometry x="495" y="640" width="120" height="60" as="geometry" />
        </mxCell>
        <mxCell id="iuwSZ66twtj5qp6_oxFh-74" value="" style="endArrow=open;endFill=1;endSize=12;html=1;rounded=0;exitX=0.5;exitY=1;exitDx=0;exitDy=0;entryX=0.5;entryY=0;entryDx=0;entryDy=0;" edge="1" parent="1" source="iuwSZ66twtj5qp6_oxFh-70" target="iuwSZ66twtj5qp6_oxFh-73">
          <mxGeometry width="160" relative="1" as="geometry">
            <mxPoint x="554.58" y="600" as="sourcePoint" />
            <mxPoint x="554.58" y="670" as="targetPoint" />
          </mxGeometry>
        </mxCell>
        <mxCell id="iuwSZ66twtj5qp6_oxFh-75" value="[searching criterias&lt;br&gt;applied]" style="text;html=1;align=center;verticalAlign=middle;resizable=0;points=[];autosize=1;strokeColor=none;fillColor=none;" vertex="1" parent="1">
          <mxGeometry x="550" y="585" width="120" height="40" as="geometry" />
        </mxCell>
        <mxCell id="iuwSZ66twtj5qp6_oxFh-76" value="" style="endArrow=open;endFill=1;endSize=12;html=1;rounded=0;edgeStyle=orthogonalEdgeStyle;entryX=0;entryY=0.75;entryDx=0;entryDy=0;exitX=0;exitY=0;exitDx=0;exitDy=0;" edge="1" parent="1" source="iuwSZ66twtj5qp6_oxFh-73" target="iuwSZ66twtj5qp6_oxFh-25">
          <mxGeometry width="160" relative="1" as="geometry">
            <mxPoint x="480" y="670" as="sourcePoint" />
            <mxPoint x="470" y="420" as="targetPoint" />
            <Array as="points">
              <mxPoint x="470" y="640" />
              <mxPoint x="470" y="305" />
            </Array>
          </mxGeometry>
        </mxCell>
        <mxCell id="iuwSZ66twtj5qp6_oxFh-78" value="reset criterias" style="text;html=1;align=center;verticalAlign=middle;resizable=0;points=[];autosize=1;strokeColor=none;fillColor=none;" vertex="1" parent="1">
          <mxGeometry x="380" y="460" width="100" height="30" as="geometry" />
        </mxCell>
        <mxCell id="iuwSZ66twtj5qp6_oxFh-79" value="" style="endArrow=open;endFill=1;endSize=12;html=1;rounded=0;exitX=0;exitY=0.75;exitDx=0;exitDy=0;entryX=1;entryY=0.25;entryDx=0;entryDy=0;" edge="1" parent="1" source="iuwSZ66twtj5qp6_oxFh-73" target="iuwSZ66twtj5qp6_oxFh-80">
          <mxGeometry width="160" relative="1" as="geometry">
            <mxPoint x="360" y="635" as="sourcePoint" />
            <mxPoint x="370" y="685" as="targetPoint" />
          </mxGeometry>
        </mxCell>
        <mxCell id="iuwSZ66twtj5qp6_oxFh-80" value="Display chosen tour" style="rounded=1;whiteSpace=wrap;html=1;" vertex="1" parent="1">
          <mxGeometry x="240" y="670" width="120" height="60" as="geometry" />
        </mxCell>
        <mxCell id="iuwSZ66twtj5qp6_oxFh-81" value="view tour" style="text;html=1;align=center;verticalAlign=middle;resizable=0;points=[];autosize=1;strokeColor=none;fillColor=none;" vertex="1" parent="1">
          <mxGeometry x="395" y="660" width="70" height="30" as="geometry" />
        </mxCell>
        <mxCell id="iuwSZ66twtj5qp6_oxFh-83" value="add to wishlist" style="text;html=1;align=center;verticalAlign=middle;resizable=0;points=[];autosize=1;strokeColor=none;fillColor=none;" vertex="1" parent="1">
          <mxGeometry x="210" y="625" width="100" height="30" as="geometry" />
        </mxCell>
        <mxCell id="iuwSZ66twtj5qp6_oxFh-84" value="Process the request" style="rounded=1;whiteSpace=wrap;html=1;" vertex="1" parent="1">
          <mxGeometry x="240" y="540" width="120" height="60" as="geometry" />
        </mxCell>
        <mxCell id="iuwSZ66twtj5qp6_oxFh-86" value="" style="endArrow=open;endFill=1;endSize=12;html=1;rounded=0;exitX=0.5;exitY=0;exitDx=0;exitDy=0;entryX=0.5;entryY=1;entryDx=0;entryDy=0;" edge="1" parent="1" source="iuwSZ66twtj5qp6_oxFh-80" target="iuwSZ66twtj5qp6_oxFh-84">
          <mxGeometry width="160" relative="1" as="geometry">
            <mxPoint x="304.58000000000004" y="670" as="sourcePoint" />
            <mxPoint x="304.58000000000004" y="610" as="targetPoint" />
          </mxGeometry>
        </mxCell>
        <mxCell id="iuwSZ66twtj5qp6_oxFh-87" value="" style="endArrow=open;endFill=1;endSize=12;html=1;rounded=0;exitX=0;exitY=0;exitDx=0;exitDy=0;edgeStyle=orthogonalEdgeStyle;entryX=0;entryY=1;entryDx=0;entryDy=0;" edge="1" parent="1" source="iuwSZ66twtj5qp6_oxFh-84" target="iuwSZ66twtj5qp6_oxFh-4">
          <mxGeometry width="160" relative="1" as="geometry">
            <mxPoint x="255" y="530" as="sourcePoint" />
            <mxPoint x="240" y="360" as="targetPoint" />
            <Array as="points">
              <mxPoint x="190" y="540" />
              <mxPoint x="190" y="170" />
            </Array>
          </mxGeometry>
        </mxCell>
        <mxCell id="iuwSZ66twtj5qp6_oxFh-88" value="[user is unauthorized]" style="text;html=1;align=center;verticalAlign=middle;resizable=0;points=[];autosize=1;strokeColor=none;fillColor=none;" vertex="1" parent="1">
          <mxGeometry x="180" y="405" width="140" height="30" as="geometry" />
        </mxCell>
        <mxCell id="iuwSZ66twtj5qp6_oxFh-89" value="Display wishlist&lt;br&gt;notification" style="rounded=1;whiteSpace=wrap;html=1;" vertex="1" parent="1">
          <mxGeometry x="240" y="445" width="120" height="60" as="geometry" />
        </mxCell>
        <mxCell id="iuwSZ66twtj5qp6_oxFh-90" value="" style="endArrow=open;endFill=1;endSize=12;html=1;rounded=0;exitX=0.5;exitY=0;exitDx=0;exitDy=0;entryX=0.5;entryY=1;entryDx=0;entryDy=0;" edge="1" parent="1" source="iuwSZ66twtj5qp6_oxFh-84" target="iuwSZ66twtj5qp6_oxFh-89">
          <mxGeometry width="160" relative="1" as="geometry">
            <mxPoint x="290" y="540" as="sourcePoint" />
            <mxPoint x="290" y="470" as="targetPoint" />
          </mxGeometry>
        </mxCell>
        <mxCell id="iuwSZ66twtj5qp6_oxFh-92" value="" style="endArrow=open;endFill=1;endSize=12;html=1;rounded=0;exitX=0;exitY=0.5;exitDx=0;exitDy=0;entryX=0;entryY=0;entryDx=0;entryDy=0;edgeStyle=orthogonalEdgeStyle;" edge="1" parent="1" source="iuwSZ66twtj5qp6_oxFh-89" target="iuwSZ66twtj5qp6_oxFh-80">
          <mxGeometry width="160" relative="1" as="geometry">
            <mxPoint x="105" y="605" as="sourcePoint" />
            <mxPoint x="105" y="535" as="targetPoint" />
            <Array as="points">
              <mxPoint x="210" y="475" />
              <mxPoint x="210" y="670" />
            </Array>
          </mxGeometry>
        </mxCell>
        <mxCell id="iuwSZ66twtj5qp6_oxFh-95" value="close&lt;br&gt;&amp;nbsp;notification" style="text;html=1;align=center;verticalAlign=middle;resizable=0;points=[];autosize=1;strokeColor=none;fillColor=none;" vertex="1" parent="1">
          <mxGeometry x="140" y="550" width="80" height="40" as="geometry" />
        </mxCell>
        <mxCell id="iuwSZ66twtj5qp6_oxFh-96" value="[user is authorized]" style="text;html=1;align=center;verticalAlign=middle;resizable=0;points=[];autosize=1;strokeColor=none;fillColor=none;" vertex="1" parent="1">
          <mxGeometry x="300" y="510" width="120" height="30" as="geometry" />
        </mxCell>
        <mxCell id="iuwSZ66twtj5qp6_oxFh-97" value="" style="endArrow=open;endFill=1;endSize=12;html=1;rounded=0;exitX=1;exitY=0.75;exitDx=0;exitDy=0;entryX=0;entryY=0.75;entryDx=0;entryDy=0;" edge="1" parent="1" source="iuwSZ66twtj5qp6_oxFh-80" target="iuwSZ66twtj5qp6_oxFh-99">
          <mxGeometry width="160" relative="1" as="geometry">
            <mxPoint x="505" y="730" as="sourcePoint" />
            <mxPoint x="660" y="715" as="targetPoint" />
          </mxGeometry>
        </mxCell>
        <mxCell id="iuwSZ66twtj5qp6_oxFh-98" value="book tour" style="text;html=1;align=center;verticalAlign=middle;resizable=0;points=[];autosize=1;strokeColor=none;fillColor=none;" vertex="1" parent="1">
          <mxGeometry x="380" y="690" width="70" height="30" as="geometry" />
        </mxCell>
        <mxCell id="iuwSZ66twtj5qp6_oxFh-99" value="Check if user&lt;br&gt;is authorized" style="rounded=1;whiteSpace=wrap;html=1;" vertex="1" parent="1">
          <mxGeometry x="670" y="670" width="120" height="60" as="geometry" />
        </mxCell>
        <mxCell id="iuwSZ66twtj5qp6_oxFh-105" value="" style="endArrow=open;endFill=1;endSize=12;html=1;rounded=0;exitX=0.5;exitY=1;exitDx=0;exitDy=0;edgeStyle=orthogonalEdgeStyle;entryX=0;entryY=0.75;entryDx=0;entryDy=0;" edge="1" parent="1" source="iuwSZ66twtj5qp6_oxFh-99" target="iuwSZ66twtj5qp6_oxFh-4">
          <mxGeometry width="160" relative="1" as="geometry">
            <mxPoint x="185" y="595" as="sourcePoint" />
            <mxPoint x="155" y="225" as="targetPoint" />
            <Array as="points">
              <mxPoint x="730" y="740" />
              <mxPoint x="90" y="740" />
              <mxPoint x="90" y="155" />
            </Array>
          </mxGeometry>
        </mxCell>
        <mxCell id="iuwSZ66twtj5qp6_oxFh-107" value="[user &lt;br&gt;is unauthorized]" style="text;html=1;align=center;verticalAlign=middle;resizable=0;points=[];autosize=1;strokeColor=none;fillColor=none;" vertex="1" parent="1">
          <mxGeometry y="400" width="110" height="40" as="geometry" />
        </mxCell>
        <mxCell id="iuwSZ66twtj5qp6_oxFh-108" value="" style="endArrow=open;endFill=1;endSize=12;html=1;rounded=0;exitX=1;exitY=0.5;exitDx=0;exitDy=0;entryX=0;entryY=0.5;entryDx=0;entryDy=0;" edge="1" parent="1" source="iuwSZ66twtj5qp6_oxFh-99" target="iuwSZ66twtj5qp6_oxFh-109">
          <mxGeometry width="160" relative="1" as="geometry">
            <mxPoint x="820" y="704.58" as="sourcePoint" />
            <mxPoint x="910" y="700" as="targetPoint" />
          </mxGeometry>
        </mxCell>
        <mxCell id="iuwSZ66twtj5qp6_oxFh-109" value="Display&lt;br&gt;booking form" style="rounded=1;whiteSpace=wrap;html=1;" vertex="1" parent="1">
          <mxGeometry x="870" y="670" width="120" height="60" as="geometry" />
        </mxCell>
        <mxCell id="iuwSZ66twtj5qp6_oxFh-110" value="[user &lt;br&gt;is authorized]" style="text;html=1;align=center;verticalAlign=middle;resizable=0;points=[];autosize=1;strokeColor=none;fillColor=none;" vertex="1" parent="1">
          <mxGeometry x="785" y="660" width="90" height="40" as="geometry" />
        </mxCell>
        <mxCell id="iuwSZ66twtj5qp6_oxFh-114" value="Check booking form" style="rounded=1;whiteSpace=wrap;html=1;" vertex="1" parent="1">
          <mxGeometry x="1030" y="595" width="120" height="60" as="geometry" />
        </mxCell>
        <mxCell id="iuwSZ66twtj5qp6_oxFh-115" value="" style="endArrow=open;endFill=1;endSize=12;html=1;rounded=0;entryX=0.5;entryY=1;entryDx=0;entryDy=0;exitX=1;exitY=0.5;exitDx=0;exitDy=0;edgeStyle=orthogonalEdgeStyle;" edge="1" parent="1" source="iuwSZ66twtj5qp6_oxFh-109" target="iuwSZ66twtj5qp6_oxFh-114">
          <mxGeometry width="160" relative="1" as="geometry">
            <mxPoint x="1020" y="700" as="sourcePoint" />
            <mxPoint x="1300" y="700" as="targetPoint" />
          </mxGeometry>
        </mxCell>
        <mxCell id="iuwSZ66twtj5qp6_oxFh-116" value="send booking&lt;br&gt;form" style="text;html=1;align=center;verticalAlign=middle;resizable=0;points=[];autosize=1;strokeColor=none;fillColor=none;" vertex="1" parent="1">
          <mxGeometry x="990" y="660" width="90" height="40" as="geometry" />
        </mxCell>
        <mxCell id="iuwSZ66twtj5qp6_oxFh-117" value="" style="endArrow=open;endFill=1;endSize=12;html=1;rounded=0;entryX=0.5;entryY=0;entryDx=0;entryDy=0;exitX=0;exitY=0.25;exitDx=0;exitDy=0;edgeStyle=orthogonalEdgeStyle;" edge="1" parent="1" source="iuwSZ66twtj5qp6_oxFh-114" target="iuwSZ66twtj5qp6_oxFh-109">
          <mxGeometry width="160" relative="1" as="geometry">
            <mxPoint x="859.5" y="579.5" as="sourcePoint" />
            <mxPoint x="959.5" y="534.5" as="targetPoint" />
          </mxGeometry>
        </mxCell>
        <mxCell id="iuwSZ66twtj5qp6_oxFh-118" value="[fail&lt;br&gt;(found mistakes)]" style="text;html=1;align=center;verticalAlign=middle;resizable=0;points=[];autosize=1;strokeColor=none;fillColor=none;" vertex="1" parent="1">
          <mxGeometry x="920" y="610" width="120" height="40" as="geometry" />
        </mxCell>
        <mxCell id="iuwSZ66twtj5qp6_oxFh-119" value="" style="endArrow=open;endFill=1;endSize=12;html=1;rounded=0;exitX=0.5;exitY=0;exitDx=0;exitDy=0;entryX=0.5;entryY=1;entryDx=0;entryDy=0;" edge="1" parent="1" source="iuwSZ66twtj5qp6_oxFh-114" target="iuwSZ66twtj5qp6_oxFh-120">
          <mxGeometry width="160" relative="1" as="geometry">
            <mxPoint x="850" y="510" as="sourcePoint" />
            <mxPoint x="1090" y="530" as="targetPoint" />
          </mxGeometry>
        </mxCell>
        <mxCell id="iuwSZ66twtj5qp6_oxFh-120" value="Hold for choosing&lt;br&gt;payment option" style="rounded=1;whiteSpace=wrap;html=1;" vertex="1" parent="1">
          <mxGeometry x="1030" y="490" width="120" height="60" as="geometry" />
        </mxCell>
        <mxCell id="iuwSZ66twtj5qp6_oxFh-122" value="[form is approved]" style="text;html=1;align=center;verticalAlign=middle;resizable=0;points=[];autosize=1;strokeColor=none;fillColor=none;" vertex="1" parent="1">
          <mxGeometry x="975" y="560" width="120" height="30" as="geometry" />
        </mxCell>
        <mxCell id="iuwSZ66twtj5qp6_oxFh-124" value="" style="endArrow=open;endFill=1;endSize=12;html=1;rounded=0;exitX=0.25;exitY=0;exitDx=0;exitDy=0;entryX=1;entryY=1;entryDx=0;entryDy=0;edgeStyle=orthogonalEdgeStyle;" edge="1" parent="1" source="iuwSZ66twtj5qp6_oxFh-109" target="iuwSZ66twtj5qp6_oxFh-25">
          <mxGeometry width="160" relative="1" as="geometry">
            <mxPoint x="720" y="569.58" as="sourcePoint" />
            <mxPoint x="1030" y="569.58" as="targetPoint" />
            <Array as="points">
              <mxPoint x="900" y="660" />
              <mxPoint x="670" y="660" />
              <mxPoint x="670" y="495" />
              <mxPoint x="660" y="495" />
              <mxPoint x="660" y="320" />
            </Array>
          </mxGeometry>
        </mxCell>
        <mxCell id="iuwSZ66twtj5qp6_oxFh-125" value="cancel booking" style="text;html=1;align=center;verticalAlign=middle;resizable=0;points=[];autosize=1;strokeColor=none;fillColor=none;" vertex="1" parent="1">
          <mxGeometry x="780" y="630" width="100" height="30" as="geometry" />
        </mxCell>
        <mxCell id="iuwSZ66twtj5qp6_oxFh-130" value="" style="endArrow=open;endFill=1;endSize=12;html=1;rounded=0;entryX=0.5;entryY=0;entryDx=0;entryDy=0;exitX=0;exitY=0.75;exitDx=0;exitDy=0;edgeStyle=orthogonalEdgeStyle;" edge="1" parent="1" source="iuwSZ66twtj5qp6_oxFh-120">
          <mxGeometry width="160" relative="1" as="geometry">
            <mxPoint x="1010" y="610" as="sourcePoint" />
            <mxPoint x="910" y="670" as="targetPoint" />
            <Array as="points">
              <mxPoint x="911" y="535" />
              <mxPoint x="911" y="670" />
            </Array>
          </mxGeometry>
        </mxCell>
        <mxCell id="iuwSZ66twtj5qp6_oxFh-131" value="get back&lt;br&gt;(to editing form)" style="text;html=1;align=center;verticalAlign=middle;resizable=0;points=[];autosize=1;strokeColor=none;fillColor=none;" vertex="1" parent="1">
          <mxGeometry x="915" y="500" width="110" height="40" as="geometry" />
        </mxCell>
        <mxCell id="iuwSZ66twtj5qp6_oxFh-132" value="" style="endArrow=open;endFill=1;endSize=12;html=1;rounded=0;exitX=0;exitY=0;exitDx=0;exitDy=0;entryX=1;entryY=0;entryDx=0;entryDy=0;edgeStyle=orthogonalEdgeStyle;" edge="1" parent="1" source="iuwSZ66twtj5qp6_oxFh-120" target="iuwSZ66twtj5qp6_oxFh-133">
          <mxGeometry width="160" relative="1" as="geometry">
            <mxPoint x="990" y="497.5" as="sourcePoint" />
            <mxPoint x="890" y="490" as="targetPoint" />
            <Array as="points">
              <mxPoint x="875" y="490" />
            </Array>
          </mxGeometry>
        </mxCell>
        <mxCell id="iuwSZ66twtj5qp6_oxFh-133" value="Check chosen&lt;br&gt;payment option" style="rounded=1;whiteSpace=wrap;html=1;" vertex="1" parent="1">
          <mxGeometry x="755" y="575" width="120" height="60" as="geometry" />
        </mxCell>
        <mxCell id="iuwSZ66twtj5qp6_oxFh-134" value="choose option" style="text;html=1;align=center;verticalAlign=middle;resizable=0;points=[];autosize=1;strokeColor=none;fillColor=none;" vertex="1" parent="1">
          <mxGeometry x="915" y="470" width="100" height="30" as="geometry" />
        </mxCell>
        <mxCell id="iuwSZ66twtj5qp6_oxFh-136" value="" style="endArrow=open;endFill=1;endSize=12;html=1;rounded=0;exitX=0.75;exitY=0;exitDx=0;exitDy=0;edgeStyle=orthogonalEdgeStyle;entryX=0.5;entryY=0;entryDx=0;entryDy=0;" edge="1" parent="1" source="iuwSZ66twtj5qp6_oxFh-133" target="iuwSZ66twtj5qp6_oxFh-120">
          <mxGeometry width="160" relative="1" as="geometry">
            <mxPoint x="880" y="460" as="sourcePoint" />
            <mxPoint x="845" y="440" as="targetPoint" />
            <Array as="points">
              <mxPoint x="845" y="460" />
              <mxPoint x="1090" y="460" />
            </Array>
          </mxGeometry>
        </mxCell>
        <mxCell id="iuwSZ66twtj5qp6_oxFh-137" value="[fail to use]" style="text;html=1;align=center;verticalAlign=middle;resizable=0;points=[];autosize=1;strokeColor=none;fillColor=none;" vertex="1" parent="1">
          <mxGeometry x="920" y="440" width="80" height="30" as="geometry" />
        </mxCell>
        <mxCell id="iuwSZ66twtj5qp6_oxFh-139" value="" style="endArrow=open;endFill=1;endSize=12;html=1;rounded=0;exitX=0.25;exitY=0;exitDx=0;exitDy=0;entryX=0.5;entryY=1;entryDx=0;entryDy=0;edgeStyle=orthogonalEdgeStyle;" edge="1" parent="1" target="iuwSZ66twtj5qp6_oxFh-141">
          <mxGeometry width="160" relative="1" as="geometry">
            <mxPoint x="800" y="575" as="sourcePoint" />
            <mxPoint x="800" y="410" as="targetPoint" />
          </mxGeometry>
        </mxCell>
        <mxCell id="iuwSZ66twtj5qp6_oxFh-140" value="[option&lt;br&gt;approved]" style="text;html=1;align=center;verticalAlign=middle;resizable=0;points=[];autosize=1;strokeColor=none;fillColor=none;" vertex="1" parent="1">
          <mxGeometry x="690" y="545" width="80" height="40" as="geometry" />
        </mxCell>
        <mxCell id="iuwSZ66twtj5qp6_oxFh-141" value="Process payment and booking" style="rounded=1;whiteSpace=wrap;html=1;" vertex="1" parent="1">
          <mxGeometry x="700" y="485" width="120" height="60" as="geometry" />
        </mxCell>
        <mxCell id="iuwSZ66twtj5qp6_oxFh-143" value="Display notification&lt;br&gt;about&lt;br&gt;successful&lt;br&gt;booking" style="rounded=1;whiteSpace=wrap;html=1;" vertex="1" parent="1">
          <mxGeometry x="700" y="310" width="120" height="60" as="geometry" />
        </mxCell>
        <mxCell id="iuwSZ66twtj5qp6_oxFh-144" value="Send booking&lt;br&gt;information to email" style="rounded=1;whiteSpace=wrap;html=1;" vertex="1" parent="1">
          <mxGeometry x="700" y="400" width="120" height="60" as="geometry" />
        </mxCell>
        <mxCell id="iuwSZ66twtj5qp6_oxFh-145" value="" style="endArrow=open;endFill=1;endSize=12;html=1;rounded=0;exitX=0.5;exitY=0;exitDx=0;exitDy=0;entryX=0.5;entryY=1;entryDx=0;entryDy=0;" edge="1" parent="1" source="iuwSZ66twtj5qp6_oxFh-141" target="iuwSZ66twtj5qp6_oxFh-144">
          <mxGeometry width="160" relative="1" as="geometry">
            <mxPoint x="844.5799999999999" y="400" as="sourcePoint" />
            <mxPoint x="844.5799999999999" y="470" as="targetPoint" />
          </mxGeometry>
        </mxCell>
        <mxCell id="iuwSZ66twtj5qp6_oxFh-146" value="" style="endArrow=open;endFill=1;endSize=12;html=1;rounded=0;exitX=0.5;exitY=0;exitDx=0;exitDy=0;entryX=0.5;entryY=1;entryDx=0;entryDy=0;" edge="1" parent="1" source="iuwSZ66twtj5qp6_oxFh-144" target="iuwSZ66twtj5qp6_oxFh-143">
          <mxGeometry width="160" relative="1" as="geometry">
            <mxPoint x="770" y="495" as="sourcePoint" />
            <mxPoint x="770" y="470" as="targetPoint" />
          </mxGeometry>
        </mxCell>
        <mxCell id="iuwSZ66twtj5qp6_oxFh-149" value="" style="endArrow=open;endFill=1;endSize=12;html=1;rounded=0;exitX=0.25;exitY=0;exitDx=0;exitDy=0;entryX=1;entryY=0.5;entryDx=0;entryDy=0;edgeStyle=orthogonalEdgeStyle;" edge="1" parent="1" source="iuwSZ66twtj5qp6_oxFh-143" target="iuwSZ66twtj5qp6_oxFh-25">
          <mxGeometry width="160" relative="1" as="geometry">
            <mxPoint x="640" y="285" as="sourcePoint" />
            <mxPoint x="640" y="355" as="targetPoint" />
            <Array as="points">
              <mxPoint x="715" y="290" />
            </Array>
          </mxGeometry>
        </mxCell>
        <mxCell id="iuwSZ66twtj5qp6_oxFh-150" value="return&lt;br&gt;to main&lt;br&gt;page" style="text;html=1;align=center;verticalAlign=middle;resizable=0;points=[];autosize=1;strokeColor=none;fillColor=none;" vertex="1" parent="1">
          <mxGeometry x="640" y="270" width="60" height="60" as="geometry" />
        </mxCell>
      </root>
    </mxGraphModel>
  </diagram>
</mxfile>
